<?xml version="1.0" encoding="UTF-8"?>
<svg version="1.1" xmlns="http://www.w3.org/2000/svg" width="289" height="261">
<path d="M0 0 C95.37 0 190.74 0 289 0 C289 86.13 289 172.26 289 261 C193.63 261 98.26 261 0 261 C0 174.87 0 88.74 0 0 Z " fill="#000000" transform="translate(0,0)"/>
<path d="M0 0 C1.46973147 0.00084832 2.93946421 0.00036714 4.40919495 -0.00132751 C8.36095188 -0.00218091 12.31243022 0.01533716 16.26412296 0.03639436 C20.40806186 0.05527185 24.55200862 0.05692026 28.69598389 0.06047058 C36.52611557 0.06975876 44.35612013 0.09432837 52.18619609 0.12451905 C61.1076893 0.15816412 70.02918889 0.17457437 78.95072985 0.18960536 C97.28721201 0.22088117 115.62357622 0.2735782 133.95996094 0.34057617 C133.48550265 1.77794063 133.00983547 3.21490609 132.53366089 4.65170288 C132.13652547 5.85208222 132.13652547 5.85208222 131.73136711 7.07671165 C130.11660102 11.81560509 128.07525336 16.37535221 126.08496094 20.96557617 C125.6634375 21.96331055 125.24191406 22.96104492 124.80761719 23.98901367 C118.37699646 38.85613682 118.37699646 38.85613682 109.95996094 42.34057617 C106.92592049 42.72533703 106.92592049 42.72533703 103.65774536 42.73930359 C101.79005241 42.75811081 101.79005241 42.75811081 99.8846283 42.77729797 C98.51797459 42.77612411 97.1513211 42.77466503 95.78466797 42.77294922 C94.33551704 42.78197205 92.88637373 42.79230056 91.4372406 42.80383301 C87.51414702 42.83136813 83.5911984 42.84068274 79.66802073 42.84668708 C75.56401248 42.85607986 71.46011211 42.88228398 67.35617065 42.9066925 C59.58967027 42.95033635 51.82319086 42.97889629 44.05660522 43.00201589 C35.21255769 43.02907891 26.36861881 43.07298974 17.5246489 43.11830461 C-0.66352304 43.21112058 -18.85172371 43.28281526 -37.04003906 43.34057617 C-36.11320312 43.83428711 -35.18636719 44.32799805 -34.23144531 44.83666992 C-33.02175952 45.48371116 -31.81212684 46.13085172 -30.60253906 46.77807617 C-29.99087891 47.10356445 -29.37921875 47.42905273 -28.74902344 47.7644043 C-24.15332031 50.22729492 -24.15332031 50.22729492 -23.04003906 51.34057617 C-22.99940074 53.00674732 -22.99731806 54.67445712 -23.04003906 56.34057617 C-23.70003906 56.34057617 -24.36003906 56.34057617 -25.04003906 56.34057617 C-24.54503906 59.31057617 -24.54503906 59.31057617 -24.04003906 62.34057617 C-22.84115555 62.3442218 -21.64227203 62.34786743 -20.40705872 62.35162354 C-9.06480049 62.38869229 2.27718921 62.44659418 13.61924267 62.52447891 C19.44921623 62.56385441 25.27904099 62.59609152 31.10913086 62.61157227 C36.7438581 62.62680428 42.37817596 62.66136555 48.01272011 62.70888519 C50.15386697 62.7236317 52.29507229 62.73161329 54.43626976 62.73246002 C70.32975156 62.74505696 84.49681441 62.98727895 96.44824219 74.81323242 C102.08097869 81.04413563 103.45580683 86.70464325 103.37231445 94.85473633 C102.58558491 101.50537248 99.72593973 107.40734329 97.02246094 113.46557617 C96.45082722 114.79024766 95.88115223 116.11576618 95.31347656 117.44213867 C91.65256715 125.95536374 91.65256715 125.95536374 89.95996094 129.34057617 C89.29996094 129.34057617 88.63996094 129.34057617 87.95996094 129.34057617 C87.74210938 130.0444043 87.52425781 130.74823242 87.29980469 131.47338867 C85.63556571 135.03476304 83.2919705 137.49960263 80.52246094 140.21557617 C79.99112549 140.74151367 79.45979004 141.26745117 78.91235352 141.80932617 C74.0642738 146.47566575 68.81488725 150.03046822 62.95996094 153.34057617 C62.25484375 153.77241211 61.54972656 154.20424805 60.82324219 154.64916992 C57.98548816 156.36848001 56.33759396 157.34057617 52.95996094 157.34057617 C52.95996094 158.00057617 52.95996094 158.66057617 52.95996094 159.34057617 C50.7528611 159.99061242 48.54422201 160.63542362 46.33496094 161.27807617 C44.4903125 161.81754883 44.4903125 161.81754883 42.60839844 162.36791992 C37.17120935 163.81744892 32.13133675 164.46551076 26.50588989 164.46083069 C25.22710464 164.46220535 23.9483194 164.46358002 22.63078308 164.46499634 C21.22634864 164.46145788 19.82191444 164.45782308 18.41748047 164.45410156 C16.92892967 164.45381929 15.44037872 164.4539782 13.951828 164.45454407 C9.92130785 164.45483048 5.89081758 164.44895889 1.86030436 164.44197011 C-2.35575299 164.43571068 -6.57181104 164.43513072 -10.78787231 164.4339447 C-18.76689652 164.43083902 -26.745907 164.42263592 -34.72492516 164.41259521 C-43.81074202 164.40141038 -52.89655955 164.39591765 -61.98238158 164.39089978 C-80.66827519 164.38045267 -99.35415602 164.362868 -118.04003906 164.34057617 C-116.96391826 157.41805371 -114.52067907 151.38599168 -111.91503906 144.90307617 C-111.45355469 143.70102539 -110.99207031 142.49897461 -110.51660156 141.26049805 C-107.24763598 133.11951644 -104.01828994 127.64995306 -96.69459534 122.78140259 C-91.35692939 120.67700208 -86.3452442 120.91769793 -80.65649414 120.93994141 C-79.41197983 120.93296234 -78.16746552 120.92598328 -76.88523865 120.91879272 C-74.18736813 120.90567529 -71.49011695 120.89790143 -68.79227638 120.8993206 C-64.52723366 120.90135893 -60.26245553 120.88175845 -55.9974823 120.85914612 C-47.7187309 120.81823258 -39.44000066 120.79957425 -31.16117096 120.78297424 C-20.61222699 120.76059325 -10.06334425 120.72712635 0.4854992 120.67577511 C4.7263574 120.65584221 8.96707634 120.64627283 13.20797956 120.64482296 C16.46021422 120.64143169 19.71239457 120.62553305 22.96459961 120.61181641 C24.14128204 120.61436935 25.31796448 120.6169223 26.53030396 120.61955261 C27.60276871 120.61272461 28.67523346 120.60589661 29.78019714 120.59886169 C31.18023373 120.59641024 31.18023373 120.59641024 32.60855389 120.59390926 C35.22946021 120.49485256 35.22946021 120.49485256 37.95996094 118.34057617 C39.01348937 116.03091769 40.0171519 113.69759878 40.95996094 111.34057617 C41.28996094 111.01057617 41.61996094 110.68057617 41.95996094 110.34057617 C42.00076877 108.34099253 42.0025045 106.34012363 41.95996094 104.34057617 C40.76107742 104.33470993 39.56219391 104.32884369 38.32698059 104.32279968 C26.98475321 104.26538934 15.64271418 104.19253305 4.30067921 104.10486126 C-1.52926924 104.06028496 -7.35914986 104.02100112 -13.18920898 103.99414062 C-18.82388095 103.96798014 -24.45829007 103.9274887 -30.09279823 103.87738991 C-32.23394799 103.86080699 -34.37514312 103.84923967 -36.51634789 103.84296227 C-66.71009132 103.74555228 -66.71009132 103.74555228 -76.09472656 95.31323242 C-76.73667969 94.66225586 -77.37863281 94.0112793 -78.04003906 93.34057617 C-78.66136719 92.76178711 -79.28269531 92.18299805 -79.92285156 91.58666992 C-85.46820282 85.20306789 -84.94062301 77.12089733 -84.57128906 69.10620117 C-84.16421215 64.25520125 -82.92732435 60.57071052 -80.33691406 56.43041992 C-78.9668199 54.22258747 -78.23044127 52.19597067 -77.47753906 49.71557617 C-71.43868213 30.69818141 -56.09297488 17.58947946 -39.04003906 8.34057617 C-26.32082084 1.99614513 -14.12194197 -0.11565759 0 0 Z " fill="#E70004" transform="translate(141.0400390625,49.659423828125)"/>
</svg>
